<?xml version="1.0" encoding="UTF-8"?><svg id="Layer_2" xmlns="http://www.w3.org/2000/svg" viewBox="0 0 2058.87 480.55"><defs><style>.cls-1{fill:#2d389b;}.cls-1,.cls-2,.cls-3,.cls-4{stroke-width:0px;}.cls-2{fill:#00805a;}.cls-3{fill:#2d3278;}.cls-4{fill:#c3001e;}</style></defs><g id="Layer_1-2"><path class="cls-3" d="M1321.28,195.31c-33.49,0-60.62,27.13-60.62,60.62s27.13,60.62,60.62,60.62c9.09,0,17.71-2,25.44-5.62,7.14-3.3,10.23-11.73,6.94-18.87-3.3-7.12-11.73-10.21-18.87-6.91-4.12,1.91-8.69,2.98-13.51,2.98-12.66,0-23.62-7.34-28.88-17.99h75.28c3.93,0,7.48-1.59,10.05-4.16,2.57-2.57,4.16-6.14,4.16-10.05,0-33.49-27.15-60.62-60.62-60.62ZM1292.41,241.72c5.25-10.66,16.21-17.98,28.88-17.98s23.62,7.32,28.88,17.98h-57.75Z"/><path class="cls-3" d="M1123.1,195.3c-6.28,0-11.6,4.08-13.48,9.73-9.48-6.15-20.78-9.73-32.93-9.73-33.48,0-60.62,27.14-60.62,60.62s27.14,60.62,60.62,60.62c12.14,0,23.44-3.58,32.93-9.73,1.88,5.65,7.2,9.73,13.48,9.73,7.85,0,14.21-6.36,14.21-14.21v-92.81c0-7.85-6.36-14.21-14.21-14.21ZM1076.69,288.11c-17.75,0-32.19-14.44-32.19-32.19s14.44-32.19,32.19-32.19,32.19,14.44,32.19,32.19-14.44,32.19-32.19,32.19Z"/><path class="cls-3" d="M774.07,195.3c-6.28,0-11.6,4.08-13.48,9.73-9.48-6.15-20.78-9.73-32.93-9.73-33.48,0-60.62,27.14-60.62,60.62s27.14,60.62,60.62,60.62c12.14,0,23.44-3.58,32.93-9.73,1.88,5.65,7.2,9.73,13.48,9.73,7.85,0,14.21-6.36,14.21-14.21v-92.81c0-7.85-6.36-14.21-14.21-14.21ZM727.67,288.11c-17.75,0-32.19-14.44-32.19-32.19s14.44-32.19,32.19-32.19,32.19,14.44,32.19,32.19-14.44,32.19-32.19,32.19Z"/><path class="cls-3" d="M1227.09,195.3h-10.99v-11c0-7.85-6.36-14.21-14.21-14.21s-14.21,6.36-14.21,14.21v11h-11.01c-7.85,0-14.21,6.36-14.21,14.21h0c0,7.85,6.36,14.21,14.21,14.21h11.01v53.4c0,21.76,17.64,39.4,39.4,39.4,3.93,0,7.48-1.59,10.05-4.16,3.61-3.61,5.29-9.16,3.33-14.99-1.9-5.64-7.43-9.27-13.38-9.27s-10.98-4.92-10.98-10.98v-53.4h10.99c7.85,0,14.21-6.36,14.21-14.21h0c0-7.85-6.36-14.21-14.21-14.21Z"/><path class="cls-3" d="M635.56,195.3h-10.99v-11c0-7.85-6.36-14.21-14.21-14.21s-14.21,6.36-14.21,14.21v11h-11.01c-7.85,0-14.21,6.36-14.21,14.21h0c0,7.85,6.36,14.21,14.21,14.21h11.01v53.4c0,21.76,17.64,39.4,39.4,39.4,3.93,0,7.48-1.59,10.05-4.16,3.61-3.61,5.29-9.16,3.33-14.99-1.9-5.64-7.43-9.27-13.38-9.27s-10.98-4.92-10.98-10.98v-53.4h10.99c7.85,0,14.21-6.36,14.21-14.21h0c0-7.85-6.36-14.21-14.21-14.21Z"/><path class="cls-3" d="M938.75,195.31c-13.19,0-25.22,5.02-34.24,13.28-9.03-8.25-21.05-13.28-34.26-13.28-8.94,0-17.35,2.32-24.65,6.37-.52-.8-1.11-1.52-1.8-2.21-2.46-2.46-5.8-4.02-9.53-4.15-8.1-.29-14.73,6.82-14.73,14.92v92.09c0,8.42,7.34,15.14,15.96,14.11,7.23-.87,12.46-7.4,12.46-14.68v-57.65c1-11.41,10.62-20.37,22.28-20.37,8.05,0,15.12,4.27,19.08,10.66,2.09,3.41,3.3,7.41,3.3,11.71v56.23c0,7.84,6.37,14.21,14.21,14.21s14.21-6.37,14.21-14.21v-69.89c4.09-5.3,10.5-8.71,17.71-8.71,12.35,0,22.37,10.03,22.37,22.37v56.23c0,7.84,6.37,14.21,14.21,14.21s14.21-6.37,14.21-14.21v-56.23c0-28.06-22.74-50.79-50.79-50.79Z"/><path class="cls-3" d="M1528.33,195.31c-13.19,0-25.21,5.02-34.24,13.28-9.03-8.25-21.05-13.28-34.26-13.28-8.94,0-17.35,2.32-24.65,6.37-.52-.8-1.11-1.52-1.8-2.21-2.57-2.57-6.12-4.16-10.05-4.16-7.84,0-14.21,6.34-14.21,14.21v92.81c0,7.84,6.37,14.21,14.21,14.21s14.21-6.37,14.21-14.21v-58.23c1-11.41,10.62-20.37,22.28-20.37,8.05,0,15.12,4.27,19.08,10.66,2.09,3.41,3.3,7.41,3.3,11.71v56.23c0,7.84,6.37,14.21,14.21,14.21s14.21-6.37,14.21-14.21v-69.89c4.09-5.3,10.5-8.71,17.71-8.71,12.35,0,22.37,10.03,22.37,22.37v56.23c0,7.84,6.37,14.21,14.21,14.21s14.21-6.37,14.21-14.21v-56.23c0-28.06-22.74-50.79-50.8-50.79Z"/><path class="cls-3" d="M1890.37,323.25c-30.63,0-55.55-24.92-55.55-55.55,0-7.71,6.25-13.96,13.96-13.96s13.96,6.25,13.96,13.96c0,15.23,12.4,27.63,27.63,27.63s27.63-12.39,27.63-27.63c0-7.71,6.25-13.96,13.96-13.96s13.96,6.25,13.96,13.96c0,30.63-24.92,55.55-55.55,55.55Z"/><path class="cls-3" d="M1848.77,281.66c-7.71,0-13.96-6.25-13.96-13.96v-58.36c0-7.71,6.25-13.96,13.96-13.96s13.96,6.25,13.96,13.96v58.36c0,7.71-6.25,13.96-13.96,13.96Z"/><path class="cls-3" d="M1931.96,281.66c-7.71,0-13.96-6.25-13.96-13.96v-58.36c0-7.71,6.25-13.96,13.96-13.96s13.96,6.25,13.96,13.96v58.36c0,7.71-6.25,13.96-13.96,13.96Z"/><path class="cls-3" d="M1699.7,316.03c-33.26,0-60.32-27.06-60.32-60.32s27.06-60.32,60.32-60.32,60.32,27.06,60.32,60.32-27.06,60.32-60.32,60.32ZM1699.7,223.3c-17.87,0-32.4,14.53-32.4,32.4s14.54,32.4,32.4,32.4,32.4-14.53,32.4-32.4-14.54-32.4-32.4-32.4Z"/><path class="cls-3" d="M1796.56,316.03c-7.71,0-13.96-6.25-13.96-13.96v-118.29c0-7.71,6.25-13.96,13.96-13.96s13.96,6.25,13.96,13.96v118.29c0,7.71-6.25,13.96-13.96,13.96Z"/><path class="cls-3" d="M1653.34,361.36c-7.71,0-13.96-6.25-13.96-13.96v-138.05c0-7.71,6.25-13.96,13.96-13.96s13.96,6.25,13.96,13.96v138.05c0,7.71-6.25,13.96-13.96,13.96Z"/><path class="cls-3" d="M2008.53,320.47c-11.96,0-23.94-3.62-34.13-11.09-6.22-4.56-8.06-12.8-3.5-19.02,4.56-6.22,13.3-7.56,19.51-3,9.32,6.83,25.7,6.36,34.53,2.01,2.86-1.41,4.95-3.69,5.33-6.08.63-4.01-.75-6.42-1.89-7.58-3.17-3.24-9.4-4.53-18.03-5.17-7.69-.57-13.96-6.25-13.96-13.96s6.25-13.96,13.96-13.96c15.24,0,29.42,4.81,37.98,13.56,7.11,7.26,10.75,16.87,10.52,27.79-.27,12.73-8.13,23.82-21.55,30.44-7.68,3.79-18.58,6.07-28.78,6.07Z"/><path class="cls-3" d="M2017.63,192.87c11.96,0,21.22,4.18,31.41,11.65,6.22,4.56,8.06,12.8,3.5,19.02-4.56,6.22-13.3,7.56-19.51,3-9.32-6.83-23.33-7.39-30.74-3.03-2.75,1.62-4.95,4.15-5.33,6.54-.63,4.01.75,6.42,1.89,7.58,3.17,3.24,9.4,4.53,18.03,5.17,7.69.57,13.96,6.25,13.96,13.96s-6.25,13.96-13.96,13.96c-15.24,0-29.42-4.81-37.98-13.56-7.11-7.26-10.75-16.87-10.52-27.79.27-12.73,8.13-23.82,21.55-30.44,7.68-3.79,17.5-6.07,27.7-6.07Z"/><path class="cls-4" d="M429.96,240.27c0,104.76-84.93,189.69-189.69,189.69S50.59,345.03,50.59,240.27,135.52,50.59,240.27,50.59c20.61,0,40.45,3.28,59.02,9.36-22.51,2.72-40.03,21.95-40.03,45.18,0,12.16,4.73,23.58,13.32,32.18,8.59,8.6,20.01,13.34,32.18,13.34h18.82v18.82c0,25.09,20.41,45.51,45.51,45.51s45.52-20.41,45.52-45.51v-4.07c9.88,22.97,15.35,48.27,15.35,74.86Z"/><path class="cls-1" d="M480.55,240.27c0,64.18-25,124.52-70.38,169.9-45.38,45.38-105.72,70.38-169.9,70.38s-124.51-25-169.9-70.38C24.99,364.79,0,304.45,0,240.27S24.99,115.76,70.37,70.37C115.76,24.99,176.09,0,240.27,0c31.08,0,61.28,5.82,89.8,17.35-4.23,7.01-6.49,15.06-6.49,23.45v1.1c-26.38-11.11-54.41-16.74-83.31-16.74C121.67,25.17,25.17,121.67,25.17,240.27s96.5,215.1,215.1,215.1,215.1-96.5,215.1-215.1c0-32.13-6.55-62.24-19.48-89.69,8.86-.48,17.06-3.51,23.87-8.35,13.8,30.17,20.78,63.07,20.78,98.04Z"/><path class="cls-2" d="M433.41,84.87h-44.04v-44.06c0-11.2-9.08-20.26-20.28-20.26-5.6,0-10.67,2.27-14.34,5.93-3.65,3.65-5.93,8.73-5.93,14.33v44.06h-44.06c-11.2,0-20.26,9.08-20.26,20.27,0,5.6,2.27,10.67,5.93,14.33,3.65,3.67,8.73,5.95,14.33,5.95h44.06v44.06c0,11.18,9.07,20.27,20.27,20.27s20.28-9.09,20.28-20.27v-44.06h44.04c4.38,0,8.44-1.39,11.76-3.75,5.16-3.67,8.53-9.7,8.53-16.52,0-11.19-9.09-20.27-20.29-20.27Z"/></g></svg>